<svg width="35" height="36" viewBox="0 0 35 36" fill="none" xmlns="http://www.w3.org/2000/svg">
<path d="M29.3973 0H9.16919C6.18714 0 3.76099 2.42615 3.76099 5.4082V6.62657H2.32324C1.04226 6.62657 0 7.66883 0 8.94981C0 10.2309 1.04226 11.2731 2.32324 11.2731H3.76099V15.4248H2.32324C1.04226 15.4248 0 16.4671 0 17.748C0 19.029 1.04226 20.0713 2.32324 20.0713H3.76099V24.223H2.32324C1.04226 24.223 0 25.2652 0 26.5462C0 27.8273 1.04226 28.8695 2.32324 28.8695H3.76099V30.0879C3.76099 33.0699 6.18714 35.4961 9.16919 35.4961H29.3973C32.3794 35.4961 34.8055 33.0699 34.8055 30.0879V5.4082C34.8055 2.42615 32.3794 0 29.3973 0ZM1.21875 8.94981C1.21875 8.34082 1.71425 7.84532 2.32324 7.84532H6.41748C7.02647 7.84532 7.52197 8.34082 7.52197 8.94989C7.52197 9.55889 7.02647 10.0544 6.41748 10.0544H2.32324C1.71425 10.0544 1.21875 9.55888 1.21875 8.94981ZM1.21875 17.748C1.21875 17.1391 1.71425 16.6436 2.32324 16.6436H6.41748C7.02647 16.6436 7.52197 17.1391 7.52197 17.748C7.52197 18.357 7.02647 18.8525 6.41748 18.8525H2.32324C1.71425 18.8525 1.21875 18.357 1.21875 17.748ZM1.21875 26.5462C1.21875 25.9372 1.71425 25.4417 2.32324 25.4417H6.41748C7.02647 25.4417 7.52197 25.9372 7.52197 26.5463C7.52197 27.1553 7.02647 27.6508 6.41748 27.6508H2.32324C1.71425 27.6508 1.21875 27.1553 1.21875 26.5462ZM33.5868 30.0879C33.5868 32.398 31.7074 34.2773 29.3973 34.2773H9.16919C6.85912 34.2773 4.97974 32.398 4.97974 30.0879V28.8695H6.41748C7.69846 28.8695 8.74072 27.8273 8.74072 26.5463C8.74072 25.2652 7.69846 24.223 6.41748 24.223H4.97974V20.0713H6.41748C7.69846 20.0713 8.74072 19.029 8.74072 17.748C8.74072 16.4671 7.69846 15.4248 6.41748 15.4248H4.97974V11.2731H6.41748C7.69846 11.2731 8.74072 10.2309 8.74072 8.94989C8.74072 7.66883 7.69846 6.62657 6.41748 6.62657H4.97974V5.4082C4.97974 3.09814 6.85912 1.21875 9.16919 1.21875H29.3973C31.7074 1.21875 33.5868 3.09814 33.5868 5.4082V30.0879ZM21.9912 7.76481H20.1561C16.3347 7.76481 14.2994 13.5626 14.2994 17.748C14.2994 21.9335 16.3347 27.7314 20.1561 27.7314H21.9912C23.2461 27.7314 24.2671 26.7104 24.2671 25.4555V22.8673C24.2671 21.6123 23.2461 20.5914 21.9912 20.5914H21.0458C20.353 19.8046 19.9742 18.8042 19.9742 17.748C19.9742 16.6918 20.353 15.6915 21.0458 14.9047H21.9912C23.2461 14.9047 24.2671 13.8838 24.2671 12.6289V10.0407C24.2671 8.78574 23.2461 7.76481 21.9912 7.76481ZM23.0483 12.6289C23.0483 13.2117 22.5741 13.686 21.9912 13.686H20.7811C20.7003 13.6859 20.6204 13.702 20.5459 13.7331C20.4714 13.7643 20.4039 13.81 20.3472 13.8675C19.3208 14.9084 18.7555 16.2865 18.7555 17.748C18.7555 19.2096 19.3208 20.5877 20.3472 21.6286C20.4039 21.6861 20.4714 21.7318 20.5459 21.7629C20.6204 21.7941 20.7003 21.8101 20.7811 21.8101H21.9912C22.5741 21.8101 23.0483 22.2844 23.0483 22.8673V25.4555C23.0483 26.0384 22.5741 26.5126 21.9912 26.5126H20.1561C17.2826 26.5126 15.5181 21.4078 15.5181 17.748C15.5181 14.0883 17.2826 8.98356 20.1561 8.98356H21.9912C22.5741 8.98356 23.0483 9.4578 23.0483 10.0406V12.6289Z" fill="#FFE815"/>
</svg>
