<svg width="54" height="26" viewBox="0 0 54 26" fill="none" xmlns="http://www.w3.org/2000/svg">
<path d="M1.8 25.8846H52.1688C52.6462 25.8846 53.104 25.695 53.4416 25.3574C53.7792 25.0198 53.9688 24.562 53.9688 24.0846C53.9688 23.6072 53.7792 23.1494 53.4416 22.8118C53.104 22.4742 52.6462 22.2846 52.1688 22.2846H3.6V3.6H52.1688C52.6462 3.6 53.104 3.41036 53.4416 3.07279C53.7792 2.73523 53.9688 2.27739 53.9688 1.8C53.9688 1.32261 53.7792 0.864773 53.4416 0.527208C53.104 0.189642 52.6462 0 52.1688 0H1.8C1.32261 0 0.864772 0.189642 0.527206 0.527208C0.189641 0.864773 0 1.32261 0 1.8V24.0846C0 24.562 0.189641 25.0198 0.527206 25.3574C0.864772 25.695 1.32261 25.8846 1.8 25.8846Z" fill="white"/>
<path d="M11.1594 14.7426H42.8094C43.0458 14.7426 43.2798 14.696 43.4982 14.6056C43.7166 14.5151 43.915 14.3825 44.0822 14.2154C44.2493 14.0482 44.3819 13.8498 44.4724 13.6314C44.5628 13.413 44.6094 13.179 44.6094 12.9426C44.6094 12.7062 44.5628 12.4722 44.4724 12.2538C44.3819 12.0354 44.2493 11.837 44.0822 11.6698C43.915 11.5027 43.7166 11.3701 43.4982 11.2796C43.2798 11.1892 43.0458 11.1426 42.8094 11.1426H11.16C10.9236 11.1426 10.6895 11.1892 10.4712 11.2796C10.2528 11.3701 10.0543 11.5027 9.8872 11.6698C9.72005 11.837 9.58747 12.0354 9.49701 12.2538C9.40655 12.4722 9.35999 12.7062 9.35999 12.9426C9.35999 13.179 9.40655 13.413 9.49701 13.6314C9.58747 13.8498 9.72005 14.0482 9.8872 14.2154C10.0543 14.3825 10.2528 14.5151 10.4712 14.6056C10.6895 14.696 10.923 14.7426 11.1594 14.7426Z" fill="white"/>
</svg>
